<svg width="28" height="33" viewBox="0 0 28 33" fill="none" xmlns="http://www.w3.org/2000/svg">
<path d="M22.8284 17.4186C22.7902 13.2806 26.3035 11.2675 26.4641 11.1737C24.4744 8.34531 21.3905 7.95886 20.3067 7.92804C17.7165 7.66228 15.2041 9.43919 13.8846 9.43919C12.5388 9.43919 10.507 7.95372 8.31712 7.99737C5.49914 8.03974 2.86288 9.63049 1.41702 12.1007C-1.56688 17.1374 0.658533 24.5391 3.51734 28.6103C4.9474 30.6042 6.61843 32.8304 8.80566 32.7521C10.9455 32.6661 11.7448 31.422 14.3271 31.422C16.8856 31.422 17.6362 32.7521 19.8669 32.7021C22.1634 32.6661 23.6093 30.6992 24.9893 28.6873C26.6419 26.402 27.3056 24.1513 27.3319 24.0358C27.2779 24.0178 22.8719 22.3783 22.8284 17.4186Z" fill="black"/>
<path d="M18.6146 5.24984C19.7655 3.84655 20.553 1.9374 20.3344 0C18.6686 0.0718981 16.5854 1.12341 15.3858 2.49589C14.3244 3.70532 13.3763 5.68765 13.6213 7.55186C15.4924 7.68796 17.4137 6.63131 18.6146 5.24984Z" fill="black"/>
</svg>
