<svg width="31" height="34" viewBox="0 0 31 34" fill="none" xmlns="http://www.w3.org/2000/svg">
<path d="M0.610671 0.509829C0.223857 0.904626 0 1.51929 0 2.3153V30.7086C0 31.5046 0.223857 32.1193 0.610671 32.5141L0.706141 32.6008L17.0248 16.6965V16.321L0.706141 0.416749L0.610671 0.509829Z" fill="url(#paint0_linear_2075_598)"/>
<path d="M22.4582 22.0005L17.0247 16.6965V16.3209L22.4647 11.0168L22.5866 11.0858L29.0291 14.6599C30.8677 15.6742 30.8677 17.3432 29.0291 18.3639L22.5866 21.9315L22.4582 22.0005V22.0005Z" fill="url(#paint1_linear_2075_598)"/>
<path d="M22.5866 21.9315L17.0247 16.5087L0.610596 32.514C1.22127 33.1399 2.21711 33.2154 3.34957 32.5895L22.5866 21.9315" fill="url(#paint2_linear_2075_598)"/>
<path d="M22.5866 11.0859L3.34957 0.42795C2.21711 -0.191529 1.22127 -0.116102 0.610596 0.509796L17.0247 16.5087L22.5866 11.0859Z" fill="url(#paint3_linear_2075_598)"/>
<defs>
<linearGradient id="paint0_linear_2075_598" x1="15.5759" y1="31.0043" x2="-5.96406" y2="8.91209" gradientUnits="userSpaceOnUse">
<stop stop-color="#00A0FF"/>
<stop offset="0.0066" stop-color="#00A1FF"/>
<stop offset="0.2601" stop-color="#00BEFF"/>
<stop offset="0.5122" stop-color="#00D2FF"/>
<stop offset="0.7604" stop-color="#00DFFF"/>
<stop offset="1" stop-color="#00E3FF"/>
</linearGradient>
<linearGradient id="paint1_linear_2075_598" x1="31.4232" y1="16.5069" x2="-0.439586" y2="16.5069" gradientUnits="userSpaceOnUse">
<stop stop-color="#FFE000"/>
<stop offset="0.4087" stop-color="#FFBD00"/>
<stop offset="0.7754" stop-color="#FFA500"/>
<stop offset="1" stop-color="#FF9C00"/>
</linearGradient>
<linearGradient id="paint2_linear_2075_598" x1="19.5622" y1="13.5608" x2="-9.64769" y2="-16.3981" gradientUnits="userSpaceOnUse">
<stop stop-color="#FF3A44"/>
<stop offset="1" stop-color="#C31162"/>
</linearGradient>
<linearGradient id="paint3_linear_2075_598" x1="-3.52117" y1="41.9604" x2="9.52235" y2="28.5825" gradientUnits="userSpaceOnUse">
<stop stop-color="#32A071"/>
<stop offset="0.0685" stop-color="#2DA771"/>
<stop offset="0.4762" stop-color="#15CF74"/>
<stop offset="0.8009" stop-color="#06E775"/>
<stop offset="1" stop-color="#00F076"/>
</linearGradient>
</defs>
</svg>
