<svg width="36" height="36" viewBox="0 0 36 36" fill="none" xmlns="http://www.w3.org/2000/svg">
<path fill-rule="evenodd" clip-rule="evenodd" d="M12.7944 12.7945C14.066 11.5229 15.7907 10.8085 17.589 10.8085C19.3873 10.8085 21.112 11.5229 22.3836 12.7945C23.6552 14.0661 24.3696 15.7907 24.3696 17.5891C24.3696 19.3874 23.6552 21.112 22.3836 22.3837C21.112 23.6553 19.3873 24.3696 17.589 24.3696C15.7907 24.3696 14.066 23.6553 12.7944 22.3837C11.5228 21.112 10.8084 19.3874 10.8084 17.5891C10.8084 15.7907 11.5228 14.0661 12.7944 12.7945ZM15.9046 21.6557C16.4386 21.8769 17.011 21.9907 17.589 21.9907C18.7564 21.9907 19.876 21.527 20.7014 20.7015C21.5269 19.876 21.9907 18.7565 21.9907 17.5891C21.9907 16.4217 21.5269 15.3021 20.7014 14.4766C19.876 13.6511 18.7564 13.1874 17.589 13.1874C17.011 13.1874 16.4386 13.3013 15.9046 13.5225C15.3705 13.7437 14.8853 14.0679 14.4766 14.4766C14.0678 14.8854 13.7436 15.3706 13.5224 15.9046C13.3012 16.4387 13.1873 17.011 13.1873 17.5891C13.1873 18.1671 13.3012 18.7395 13.5224 19.2735C13.7436 19.8075 14.0678 20.2928 14.4766 20.7015C14.8853 21.1102 15.3705 21.4345 15.9046 21.6557Z" fill="black"/>
<path d="M25.8727 11.8187C26.1733 11.5181 26.3422 11.1105 26.3422 10.6854C26.3422 10.2603 26.1733 9.8526 25.8727 9.55201C25.5721 9.25143 25.1645 9.08256 24.7394 9.08256C24.3143 9.08256 23.9066 9.25143 23.606 9.55201C23.3054 9.8526 23.1366 10.2603 23.1366 10.6854C23.1366 11.1105 23.3054 11.5181 23.606 11.8187C23.9066 12.1193 24.3143 12.2882 24.7394 12.2882C25.1645 12.2882 25.5721 12.1193 25.8727 11.8187Z" fill="black"/>
<path fill-rule="evenodd" clip-rule="evenodd" d="M12.1505 4.47643C13.5576 4.41223 14.0061 4.39728 17.589 4.39728C21.1728 4.39728 21.6204 4.41311 23.0266 4.47643C24.4311 4.54063 25.3915 4.76489 26.2305 5.08941C27.1104 5.42084 27.9075 5.94003 28.5663 6.61086C29.2374 7.26985 29.7566 8.06729 30.0878 8.94756C30.414 9.78656 30.6374 10.746 30.7016 12.1505C30.7658 13.5577 30.7808 14.0062 30.7808 17.5891C30.7808 21.1719 30.7658 21.6205 30.7016 23.0276C30.6374 24.4321 30.414 25.3916 30.0886 26.2306C29.7572 27.1104 29.238 27.9076 28.5672 28.5664C27.9076 29.2383 27.1099 29.7572 26.2305 30.0878C25.3915 30.4141 24.432 30.6375 23.0275 30.7017C21.6204 30.7659 21.1719 30.7808 17.589 30.7808C14.0061 30.7808 13.5576 30.7659 12.1505 30.7017C10.746 30.6375 9.7865 30.4141 8.9475 30.0887C8.06762 29.7573 7.27052 29.2381 6.61168 28.5673C5.93978 27.9077 5.4209 27.11 5.09022 26.2306C4.76395 25.3916 4.54057 24.4321 4.47637 23.0276C4.41217 21.6205 4.39722 21.1728 4.39722 17.5891C4.39722 14.0053 4.41305 13.5577 4.47637 12.1514C4.54057 10.7469 4.76483 9.78656 5.08935 8.94756C5.42077 8.06767 5.93997 7.27057 6.6108 6.61174C7.27039 5.93984 8.06805 5.42096 8.9475 5.09029C9.7865 4.76401 10.746 4.54063 12.1505 4.47643ZM22.9202 6.85095C21.5289 6.78763 21.1112 6.77444 17.589 6.77444C14.0668 6.77444 13.6491 6.78763 12.2578 6.85095C10.972 6.90987 10.2737 7.12446 9.80849 7.30563C9.23544 7.51667 8.71703 7.85356 8.29143 8.29149C7.8306 8.7532 7.5439 9.19293 7.30556 9.80855C7.12352 10.2738 6.90981 10.9721 6.85089 12.2578C6.78757 13.6491 6.77438 14.0669 6.77438 17.5891C6.77438 21.1113 6.78757 21.529 6.85089 22.9203C6.90981 24.2061 7.1244 24.9043 7.30556 25.3696C7.51675 25.9425 7.85362 26.4609 8.29143 26.8866C8.71709 27.3245 9.23548 27.6614 9.80849 27.8725C10.2737 28.0545 10.972 28.2682 12.2578 28.3272C13.6491 28.3905 14.0659 28.4037 17.589 28.4037C21.1121 28.4037 21.5289 28.3905 22.9202 28.3272C24.206 28.2682 24.9043 28.0537 25.3695 27.8725C25.9426 27.6615 26.461 27.3246 26.8866 26.8866C27.3244 26.461 27.6613 25.9426 27.8724 25.3696C28.0545 24.9043 28.2682 24.2061 28.3271 22.9203C28.3904 21.529 28.4036 21.1113 28.4036 17.5891C28.4036 14.0669 28.3904 13.6491 28.3271 12.2578C28.2682 10.9721 28.0536 10.2738 27.8724 9.80855C27.6341 9.19293 27.3483 8.7532 26.8866 8.29149C26.4249 7.83066 25.9851 7.54396 25.3695 7.30563C24.9043 7.12358 24.206 6.90987 22.9202 6.85095Z" fill="black"/>
</svg>
