<svg width="36" height="36" viewBox="0 0 36 36" fill="none" xmlns="http://www.w3.org/2000/svg">
<path d="M30.7808 6.33725V28.8409C30.7808 29.3554 30.5764 29.8488 30.2126 30.2126C29.8488 30.5765 29.3553 30.7808 28.8408 30.7808H6.33718C5.82267 30.7808 5.32923 30.5765 4.96542 30.2126C4.60161 29.8488 4.39722 29.3554 4.39722 28.8409V6.33725C4.39722 5.82273 4.60161 5.3293 4.96542 4.96548C5.32923 4.60167 5.82267 4.39728 6.33718 4.39728H28.8408C29.3553 4.39728 29.8488 4.60167 30.2126 4.96548C30.5764 5.3293 30.7808 5.82273 30.7808 6.33725ZM12.1571 14.4851H8.27715V26.9009H12.1571V14.4851ZM12.5063 10.2172C12.5083 9.9237 12.4525 9.63268 12.3421 9.36075C12.2317 9.08883 12.0688 8.84131 11.8627 8.63235C11.6566 8.42338 11.4114 8.25705 11.141 8.14286C10.8707 8.02867 10.5804 7.96885 10.287 7.96682H10.2171C9.62029 7.96682 9.0479 8.20391 8.62587 8.62593C8.20385 9.04796 7.96676 9.62035 7.96676 10.2172C7.96676 10.814 8.20385 11.3864 8.62587 11.8084C9.0479 12.2305 9.62029 12.4675 10.2171 12.4675C10.5106 12.4748 10.8027 12.4241 11.0766 12.3184C11.3505 12.2127 11.6009 12.0541 11.8135 11.8516C12.0261 11.6491 12.1967 11.4067 12.3156 11.1382C12.4344 10.8698 12.4992 10.5805 12.5063 10.287V10.2172ZM26.9008 19.3583C26.9008 15.6258 24.5263 14.1747 22.1673 14.1747C21.3949 14.136 20.6259 14.3006 19.9369 14.6518C19.248 15.0031 18.6632 15.5289 18.2408 16.1768H18.1322V14.4851H14.485V26.9009H18.365V20.2973C18.3089 19.6209 18.5219 18.9498 18.9578 18.4296C19.3937 17.9095 20.0172 17.5823 20.6929 17.5192H20.8404C22.0742 17.5192 22.9899 18.2952 22.9899 20.2507V26.9009H26.8698L26.9008 19.3583Z" fill="black"/>
</svg>
