<svg width="147" height="24" viewBox="0 0 147 24" fill="none" xmlns="http://www.w3.org/2000/svg">
<path d="M1.2642 4.45455H5.05682L9.0625 14.2273H9.23295L13.2386 4.45455H17.0312V19H14.0483V9.53267H13.9276L10.1634 18.929H8.1321L4.3679 9.49716H4.24716V19H1.2642V4.45455ZM21.3761 23.0909C20.9925 23.0909 20.6327 23.0601 20.2965 22.9986C19.9651 22.9418 19.6905 22.8684 19.4727 22.7784L20.1545 20.5199C20.5096 20.6288 20.8292 20.688 21.1133 20.6974C21.4021 20.7069 21.6507 20.6406 21.859 20.4986C22.0721 20.3565 22.2449 20.1151 22.3775 19.7741L22.555 19.3125L18.6417 8.09091H21.8235L24.082 16.1023H24.1957L26.4755 8.09091H29.6786L25.4386 20.179C25.235 20.7661 24.958 21.2775 24.6076 21.7131C24.262 22.1534 23.824 22.492 23.2937 22.7287C22.7634 22.9702 22.1242 23.0909 21.3761 23.0909ZM41.0689 19H35.9126V4.45455H41.1115C42.5746 4.45455 43.834 4.74574 44.8899 5.32812C45.9458 5.90578 46.7578 6.73674 47.326 7.82102C47.8989 8.9053 48.1854 10.2027 48.1854 11.7131C48.1854 13.2282 47.8989 14.5303 47.326 15.6193C46.7578 16.7083 45.9411 17.544 44.8757 18.1264C43.8151 18.7088 42.5462 19 41.0689 19ZM38.9879 16.3651H40.9411C41.8501 16.3651 42.6148 16.2041 43.2351 15.8821C43.8601 15.5554 44.3288 15.0511 44.6413 14.3693C44.9586 13.6828 45.1172 12.7973 45.1172 11.7131C45.1172 10.6383 44.9586 9.75994 44.6413 9.07812C44.3288 8.39631 43.8625 7.89441 43.2422 7.57244C42.6219 7.25047 41.8572 7.08949 40.9482 7.08949H38.9879V16.3651ZM55.3356 19.2131C54.2324 19.2131 53.2783 18.9787 52.4734 18.5099C51.6732 18.0365 51.0553 17.3783 50.6197 16.5355C50.1841 15.688 49.9663 14.7055 49.9663 13.5881C49.9663 12.4612 50.1841 11.4763 50.6197 10.6335C51.0553 9.78598 51.6732 9.12784 52.4734 8.65909C53.2783 8.18561 54.2324 7.94886 55.3356 7.94886C56.4388 7.94886 57.3905 8.18561 58.1907 8.65909C58.9956 9.12784 59.6159 9.78598 60.0515 10.6335C60.4871 11.4763 60.7049 12.4612 60.7049 13.5881C60.7049 14.7055 60.4871 15.688 60.0515 16.5355C59.6159 17.3783 58.9956 18.0365 58.1907 18.5099C57.3905 18.9787 56.4388 19.2131 55.3356 19.2131ZM55.3498 16.8693C55.8517 16.8693 56.2707 16.7273 56.6069 16.4432C56.9431 16.1544 57.1964 15.7614 57.3668 15.2642C57.542 14.767 57.6296 14.2012 57.6296 13.5668C57.6296 12.9323 57.542 12.3665 57.3668 11.8693C57.1964 11.3722 56.9431 10.9792 56.6069 10.6903C56.2707 10.4015 55.8517 10.2571 55.3498 10.2571C54.8432 10.2571 54.417 10.4015 54.0714 10.6903C53.7305 10.9792 53.4724 11.3722 53.2972 11.8693C53.1268 12.3665 53.0415 12.9323 53.0415 13.5668C53.0415 14.2012 53.1268 14.767 53.2972 15.2642C53.4724 15.7614 53.7305 16.1544 54.0714 16.4432C54.417 16.7273 54.8432 16.8693 55.3498 16.8693ZM67.6012 19.2131C66.4838 19.2131 65.5226 18.9763 64.7177 18.5028C63.9175 18.0246 63.302 17.3617 62.8711 16.5142C62.445 15.6667 62.2319 14.6913 62.2319 13.5881C62.2319 12.4706 62.4473 11.4905 62.8782 10.6477C63.3138 9.80019 63.9317 9.13968 64.7319 8.66619C65.5321 8.18797 66.4838 7.94886 67.587 7.94886C68.5387 7.94886 69.372 8.12169 70.087 8.46733C70.802 8.81297 71.3678 9.2983 71.7844 9.9233C72.2011 10.5483 72.4308 11.2822 72.4734 12.125H69.6183C69.5378 11.5805 69.3247 11.1425 68.979 10.8111C68.6381 10.4749 68.1907 10.3068 67.6367 10.3068C67.168 10.3068 66.7584 10.4347 66.408 10.6903C66.0624 10.9413 65.7925 11.3082 65.5984 11.7912C65.4042 12.2741 65.3072 12.8589 65.3072 13.5455C65.3072 14.2415 65.4019 14.8333 65.5913 15.321C65.7854 15.8087 66.0576 16.1804 66.408 16.4361C66.7584 16.6918 67.168 16.8196 67.6367 16.8196C67.9824 16.8196 68.2925 16.7486 68.5671 16.6065C68.8465 16.4645 69.0761 16.2585 69.256 15.9886C69.4407 15.714 69.5614 15.3849 69.6183 15.0014H72.4734C72.426 15.8348 72.1987 16.5687 71.7915 17.2031C71.3891 17.8329 70.8327 18.3253 70.1225 18.6804C69.4123 19.0355 68.5719 19.2131 67.6012 19.2131ZM80.2131 8.09091V10.3636H73.6435V8.09091H80.2131ZM75.1349 5.47727H78.1605V15.6477C78.1605 15.9271 78.2031 16.1449 78.2884 16.3011C78.3736 16.4527 78.492 16.5592 78.6435 16.6207C78.7997 16.6823 78.9796 16.7131 79.1832 16.7131C79.3253 16.7131 79.4673 16.7012 79.6094 16.6776C79.7514 16.6491 79.8603 16.6278 79.9361 16.6136L80.4119 18.8651C80.2604 18.9124 80.0473 18.9669 79.7727 19.0284C79.4981 19.0947 79.1643 19.1349 78.7713 19.1491C78.0421 19.1776 77.4029 19.0805 76.8537 18.858C76.3092 18.6354 75.8854 18.2898 75.5824 17.821C75.2794 17.3523 75.1302 16.7604 75.1349 16.0455V5.47727ZM86.9957 19.2131C85.8925 19.2131 84.9384 18.9787 84.1335 18.5099C83.3333 18.0365 82.7154 17.3783 82.2798 16.5355C81.8442 15.688 81.6264 14.7055 81.6264 13.5881C81.6264 12.4612 81.8442 11.4763 82.2798 10.6335C82.7154 9.78598 83.3333 9.12784 84.1335 8.65909C84.9384 8.18561 85.8925 7.94886 86.9957 7.94886C88.099 7.94886 89.0507 8.18561 89.8509 8.65909C90.6558 9.12784 91.276 9.78598 91.7116 10.6335C92.1473 11.4763 92.3651 12.4612 92.3651 13.5881C92.3651 14.7055 92.1473 15.688 91.7116 16.5355C91.276 17.3783 90.6558 18.0365 89.8509 18.5099C89.0507 18.9787 88.099 19.2131 86.9957 19.2131ZM87.0099 16.8693C87.5118 16.8693 87.9309 16.7273 88.267 16.4432C88.6032 16.1544 88.8565 15.7614 89.027 15.2642C89.2022 14.767 89.2898 14.2012 89.2898 13.5668C89.2898 12.9323 89.2022 12.3665 89.027 11.8693C88.8565 11.3722 88.6032 10.9792 88.267 10.6903C87.9309 10.4015 87.5118 10.2571 87.0099 10.2571C86.5033 10.2571 86.0772 10.4015 85.7315 10.6903C85.3906 10.9792 85.1326 11.3722 84.9574 11.8693C84.7869 12.3665 84.7017 12.9323 84.7017 13.5668C84.7017 14.2012 84.7869 14.767 84.9574 15.2642C85.1326 15.7614 85.3906 16.1544 85.7315 16.4432C86.0772 16.7273 86.5033 16.8693 87.0099 16.8693ZM94.3324 19V8.09091H97.2656V9.99432H97.3793C97.5781 9.31723 97.9119 8.80587 98.3807 8.46023C98.8494 8.10985 99.3892 7.93466 100 7.93466C100.152 7.93466 100.315 7.94413 100.49 7.96307C100.665 7.98201 100.819 8.00805 100.952 8.04119V10.7259C100.81 10.6832 100.613 10.6454 100.362 10.6122C100.111 10.5791 99.8816 10.5625 99.6733 10.5625C99.2282 10.5625 98.8305 10.6596 98.4801 10.8537C98.1345 11.0431 97.8598 11.3082 97.6562 11.6491C97.4574 11.9901 97.358 12.383 97.358 12.8281V19H94.3324ZM107.202 19V4.45455H112.94C114.039 4.45455 114.976 4.65104 115.753 5.04403C116.534 5.43229 117.128 5.9839 117.536 6.69886C117.947 7.40909 118.153 8.24479 118.153 9.20597C118.153 10.1719 117.945 11.0028 117.528 11.6989C117.112 12.3902 116.508 12.9205 115.717 13.2898C114.931 13.6591 113.98 13.8438 112.862 13.8438H109.02V11.3722H112.365C112.952 11.3722 113.44 11.2917 113.828 11.1307C114.216 10.9697 114.505 10.7282 114.695 10.4062C114.889 10.0843 114.986 9.68419 114.986 9.20597C114.986 8.72301 114.889 8.31581 114.695 7.98438C114.505 7.65294 114.214 7.40199 113.821 7.23153C113.433 7.05634 112.943 6.96875 112.351 6.96875H110.277V19H107.202ZM115.057 12.3807L118.672 19H115.277L111.74 12.3807H115.057ZM128.217 8.63778C128.161 8.06487 127.917 7.61979 127.486 7.30256C127.055 6.98532 126.47 6.8267 125.732 6.8267C125.23 6.8267 124.806 6.89773 124.46 7.03977C124.115 7.17708 123.849 7.36884 123.665 7.61506C123.485 7.86127 123.395 8.14062 123.395 8.45312C123.385 8.71354 123.44 8.94081 123.558 9.13494C123.681 9.32907 123.849 9.49716 124.062 9.6392C124.276 9.77651 124.522 9.89725 124.801 10.0014C125.08 10.1009 125.379 10.1861 125.696 10.2571L127.003 10.5696C127.637 10.7116 128.22 10.901 128.75 11.1378C129.28 11.3745 129.74 11.6657 130.128 12.0114C130.516 12.357 130.817 12.7642 131.03 13.233C131.248 13.7017 131.359 14.2391 131.364 14.8452C131.359 15.7353 131.132 16.5071 130.682 17.1605C130.237 17.8092 129.593 18.3134 128.75 18.6733C127.912 19.0284 126.901 19.206 125.717 19.206C124.543 19.206 123.52 19.026 122.649 18.6662C121.783 18.3063 121.106 17.7737 120.618 17.0682C120.135 16.358 119.882 15.4796 119.858 14.4332H122.834C122.867 14.9209 123.007 15.3281 123.253 15.6548C123.504 15.9768 123.838 16.2206 124.254 16.3864C124.676 16.5473 125.152 16.6278 125.682 16.6278C126.203 16.6278 126.655 16.5521 127.038 16.4006C127.427 16.2491 127.727 16.0384 127.94 15.7685C128.153 15.4986 128.26 15.1884 128.26 14.8381C128.26 14.5114 128.163 14.2367 127.969 14.0142C127.779 13.7917 127.5 13.6023 127.131 13.446C126.766 13.2898 126.319 13.1477 125.788 13.0199L124.205 12.6222C122.978 12.3239 122.01 11.8575 121.3 11.223C120.589 10.5885 120.237 9.7339 120.241 8.65909C120.237 7.77841 120.471 7.009 120.945 6.35085C121.423 5.69271 122.079 5.17898 122.912 4.80966C123.745 4.44034 124.692 4.25568 125.753 4.25568C126.832 4.25568 127.775 4.44034 128.58 4.80966C129.389 5.17898 130.019 5.69271 130.469 6.35085C130.919 7.009 131.151 7.77131 131.165 8.63778H128.217ZM135.607 19H132.312L137.333 4.45455H141.296L146.31 19H143.015L139.371 7.77841H139.258L135.607 19ZM135.401 13.2827H143.185V15.6832H135.401V13.2827Z" fill="black"/>
</svg>
