<svg width="125" height="56" viewBox="0 0 125 56" fill="none" xmlns="http://www.w3.org/2000/svg">
<path fill-rule="evenodd" clip-rule="evenodd" d="M20.5517 19.2355L20.8029 19.684C21.1191 20.2289 21.2861 20.8476 21.2872 21.4776V35.3791C21.282 36.0086 21.1152 36.6262 20.8029 37.1728L20.5338 37.6213C20.2266 38.1703 19.7733 38.6234 19.2245 38.9307L7.18845 45.8903C6.64341 46.2065 6.02479 46.3735 5.39471 46.3747H4.89246C4.2615 46.3806 3.64104 46.213 3.09872 45.8903L-8.95514 38.9487C-9.49239 38.6261 -9.94208 38.1765 -10.2646 37.6392L-10.5157 37.1908C-10.8318 36.6457 -10.9989 36.0271 -11 35.397V21.4955C-10.9989 20.8656 -10.8318 20.2468 -10.5157 19.7019L-10.2646 19.2535C-9.95021 18.7099 -9.49869 18.2583 -8.95514 17.944L3.08078 10.9843C3.62582 10.6682 4.24444 10.5011 4.87452 10.5H5.39471C6.02479 10.5011 6.64341 10.6682 7.18845 10.9843L19.2245 17.9261C19.7711 18.2425 20.2279 18.6932 20.5517 19.2355ZM5.39471 14.0874H4.87452L-5.61878 20.1502L5.14358 26.3565L15.906 20.1502L5.39471 14.0874ZM17.4306 35.8276L6.93732 41.8905V29.4778L17.6997 23.2536V35.3792L17.4306 35.8276ZM68.0633 37.0475H64.3438V17.4169H68.0633V37.0475ZM34.5 37.4683H38.6586V30.3392H40.4667L44.8836 37.4683H49.3263L44.4445 29.6161C46.6142 28.9703 48.2415 27.498 48.2415 24.7084V24.605C48.2415 20.7823 45.4777 19 41.1124 19H34.5V37.4683ZM38.6586 27.498V22.2029H41.0091C43.0239 22.2029 44.1604 22.8487 44.1604 24.7342V24.8375C44.1604 26.6198 43.1014 27.498 41.0091 27.498H38.6586ZM56.0806 37.3309C59.7742 37.3309 62.0989 35.7037 62.538 32.7849H58.9993C58.7668 33.9214 57.9145 34.6705 56.1839 34.6705C54.1433 34.6705 52.9294 33.379 52.826 31.1318H62.5639V30.0986C62.5639 25.2684 59.4643 23.2279 55.9772 23.2279C52.0511 23.2279 49.029 25.9917 49.029 30.2536V30.4602C49.029 34.7738 51.9994 37.3309 56.0806 37.3309ZM52.8777 28.833C53.1618 26.9215 54.2983 25.8109 55.9772 25.8109C57.7595 25.8109 58.7927 26.7924 58.9219 28.833H52.8777ZM75.1985 37.332C77.4201 37.332 78.7886 36.2988 79.486 34.9299V37.0479H83.2056V23.5389H79.486V31.4687C79.486 33.4576 78.2461 34.4391 76.6711 34.4391C75.0698 34.4391 74.32 33.5609 74.32 31.727V23.5389H70.6009V32.2436C70.6009 35.7822 72.5639 37.332 75.1985 37.332ZM89.4907 37.0468H85.7448V23.5378H89.4907V25.6042C90.1618 24.3385 91.6082 23.2279 93.6233 23.2279C95.4056 23.2279 96.7488 23.977 97.3945 25.5784C98.4795 23.9511 100.236 23.2279 101.94 23.2279C104.446 23.2279 106.383 24.8035 106.383 28.3939V37.0468H102.664V28.8071C102.664 27.0765 101.888 26.3016 100.545 26.3016C99.099 26.3016 97.937 27.2315 97.937 29.0654V37.0468H94.2174V28.8071C94.2174 27.0765 93.4168 26.3016 92.099 26.3016C90.6527 26.3016 89.4907 27.2315 89.4907 29.0654V37.0468ZM115.031 37.3309C118.726 37.3309 121.051 35.7037 121.489 32.7849H117.95C117.718 33.9214 116.865 34.6705 115.135 34.6705C113.094 34.6705 111.881 33.379 111.777 31.1318H121.515V30.0986C121.515 25.2684 118.415 23.2279 114.928 23.2279C111.002 23.2279 107.98 25.9917 107.98 30.2536V30.4602C107.98 34.7738 110.95 37.3309 115.031 37.3309ZM111.829 28.833C112.113 26.9215 113.25 25.8109 114.928 25.8109C116.711 25.8109 117.744 26.7924 117.873 28.833H111.829Z" fill="#646464"/>
</svg>
