<svg width="140" height="56" viewBox="0 0 140 56" fill="none" xmlns="http://www.w3.org/2000/svg">
<path fill-rule="evenodd" clip-rule="evenodd" d="M38.5695 16.75L27.06 39.25H16.2493L21.066 29.925H20.8499C16.8761 35.0835 10.9471 38.4794 2.49927 39.25V30.0541C2.49927 30.0541 7.90358 29.7349 11.0806 26.3947H2.49927V16.7502H12.1438V24.6826L12.3602 24.6818L16.3014 16.7502H23.5953V24.6323L23.8116 24.632L27.9006 16.75H38.5695Z" fill="#646464"/>
<path d="M101.332 36.7665H104.438V18.9375H101.332V36.7665Z" fill="#646464"/>
<path fill-rule="evenodd" clip-rule="evenodd" d="M84.2085 36.5844C84.8835 36.8651 85.57 37.0054 86.2678 37.0054C87.4207 37.0054 88.4523 36.7248 89.3626 36.1634C90.2727 35.6022 90.9782 34.8286 91.4788 33.8424C91.9795 32.8488 92.2297 31.7223 92.2297 30.4632C92.2297 29.2041 91.9718 28.0777 91.4561 27.084C90.9402 26.0904 90.2235 25.3205 89.3056 24.7744C88.3878 24.2206 87.3448 23.9476 86.1767 23.9552C85.4335 23.9552 84.7205 24.0993 84.0377 24.3875C83.3551 24.6758 82.7862 25.0854 82.3311 25.6163C82.296 25.6567 82.2618 25.6976 82.2287 25.7388V18.9489H79.1112V36.7666H82.206L82.1997 35.1021C82.2797 35.2002 82.3653 35.2961 82.4562 35.3898C82.9492 35.8981 83.5333 36.2962 84.2085 36.5844ZM87.3942 33.7059C86.886 34.0169 86.3057 34.1724 85.6533 34.1724C85.0086 34.1724 84.417 34.0131 83.8785 33.6946C83.3398 33.3683 82.9113 32.9247 82.5927 32.3633C82.2817 31.8021 82.1262 31.1648 82.1262 30.4518C82.1187 29.7388 82.2703 29.1017 82.5813 28.5404C82.9 27.9715 83.3285 27.5316 83.8671 27.2206C84.4056 26.902 85.0011 26.7465 85.6533 26.7541C86.3057 26.7465 86.886 26.8982 87.3942 27.2092C87.91 27.5126 88.3043 27.9488 88.5775 28.5176C88.8581 29.0789 88.9985 29.7237 88.9985 30.4518C88.9985 31.1801 88.8581 31.8248 88.5775 32.3861C88.3043 32.9474 87.91 33.3873 87.3942 33.7059Z" fill="#646464"/>
<path d="M43.0693 20.0184H46.6192L49.7947 31.6154L53.1728 20.0184H56.1311L59.7947 31.3827L62.844 20.0184H66.098L61.2966 36.7665H58.236L54.5105 25.6645L51.0907 36.7665H47.996L43.0693 20.0184Z" fill="#646464"/>
<path fill-rule="evenodd" clip-rule="evenodd" d="M71.3405 37.0623C70.104 37.0699 68.989 36.7968 67.9954 36.2431C67.0093 35.6818 66.2319 34.9043 65.6629 33.9106C65.1017 32.917 64.821 31.783 64.821 30.5086C64.821 29.2723 65.1093 28.1535 65.6858 27.1523C66.2622 26.151 67.0434 25.3697 68.0295 24.8084C69.0157 24.2471 70.1154 23.9665 71.329 23.9665C72.6944 23.9665 73.889 24.2699 74.913 24.8767C75.9447 25.4835 76.7145 26.3444 77.2228 27.4595C77.7385 28.5669 77.9244 29.8374 77.7803 31.271H68.0344C68.0617 31.8421 68.2042 32.3618 68.4619 32.8298C68.7502 33.3455 69.1522 33.7475 69.6679 34.0358C70.1838 34.324 70.7602 34.4681 71.3974 34.4681C71.8828 34.4605 72.3342 34.3771 72.7513 34.2179C73.1685 34.051 73.5212 33.8273 73.8094 33.5465C74.1053 33.2659 74.3139 32.9474 74.4353 32.5909H77.6893C77.4921 33.4631 77.0977 34.2406 76.506 34.9233C75.9143 35.5984 75.171 36.1255 74.2759 36.5048C73.3809 36.884 72.4024 37.0699 71.3405 37.0623ZM68.4733 28.1421C68.2915 28.4591 68.1655 28.8004 68.0954 29.1661H74.5558C74.5089 28.7041 74.3663 28.2832 74.128 27.9032C73.8549 27.4557 73.4833 27.1105 73.013 26.8678C72.5428 26.6175 72.0118 26.4924 71.4202 26.4924C70.7906 26.4924 70.2179 26.6365 69.702 26.9247C69.1863 27.2129 68.7767 27.6188 68.4733 28.1421Z" fill="#646464"/>
<path d="M94.517 24.2282C94.517 23.2118 94.7483 22.3092 95.211 21.5203C95.6736 20.7239 96.3223 20.1057 97.1566 19.6657C97.9985 19.2182 98.9809 18.9868 100.103 18.9717V21.7365C99.58 21.7441 99.1325 21.854 98.7609 22.0664C98.3968 22.2712 98.1161 22.5708 97.9189 22.9653C97.7374 23.3284 97.6394 23.7494 97.625 24.2282H100.035V26.8565H97.6232V36.7665H94.517V26.8565H92.5145V24.2282H94.517Z" fill="#646464"/>
<path fill-rule="evenodd" clip-rule="evenodd" d="M112.334 37.0395C111.067 37.0395 109.933 36.7626 108.932 36.209C107.938 35.6476 107.157 34.874 106.588 33.8878C106.027 32.8942 105.746 31.7678 105.746 30.5086C105.746 29.242 106.027 28.1117 106.588 27.1181C107.157 26.1168 107.938 25.3393 108.932 24.7856C109.933 24.2319 111.067 23.955 112.334 23.955C113.608 23.955 114.746 24.2319 115.747 24.7856C116.756 25.3393 117.541 26.113 118.103 27.1067C118.664 28.1003 118.948 29.2343 118.956 30.5086C118.948 31.7678 118.664 32.8942 118.103 33.8878C117.549 34.874 116.768 35.6476 115.759 36.209C114.75 36.7626 113.608 37.0395 112.334 37.0395ZM112.334 34.1837C113.002 34.1837 113.593 34.032 114.109 33.7286C114.625 33.4176 115.023 32.9852 115.304 32.4315C115.584 31.8702 115.725 31.2292 115.725 30.5086C115.725 29.7805 115.584 29.1357 115.304 28.5744C115.023 28.0131 114.625 27.5808 114.109 27.2774C113.593 26.9664 113.002 26.8109 112.334 26.8109C111.674 26.8109 111.086 26.9664 110.57 27.2774C110.062 27.5808 109.668 28.0131 109.387 28.5744C109.107 29.1357 108.97 29.7805 108.978 30.5086C108.978 31.2292 109.118 31.8702 109.399 32.4315C109.687 32.9852 110.081 33.4176 110.582 33.7286C111.09 34.032 111.674 34.1837 112.334 34.1837Z" fill="#646464"/>
<path d="M122.312 24.2282H118.854L122.597 36.7665H125.623L128.085 28.7583L130.743 36.7665H133.724L137.479 24.2282H134.35L132.22 32.0325L129.867 24.2282H126.841L124.499 32.2044L122.312 24.2282Z" fill="#646464"/>
</svg>
