<svg width="36" height="36" viewBox="0 0 36 36" fill="none" xmlns="http://www.w3.org/2000/svg">
<path d="M17.6443 4.82281C10.4033 4.82281 4.51041 10.4987 4.50786 17.4742C4.50616 19.7048 5.11213 21.8819 6.26109 23.7994L4.39722 30.3553L11.3616 28.5961C13.2989 29.6095 15.4529 30.1381 17.6392 30.1366H17.6443C24.8853 30.1366 30.7782 24.4598 30.7808 17.4844C30.7825 14.1056 29.4173 10.9251 26.9364 8.53439C24.4564 6.14284 21.1584 4.82367 17.6443 4.82281ZM17.6443 27.9995H17.6401C15.6809 27.9995 13.7591 27.4923 12.0825 26.5339L11.6825 26.3058L7.55133 27.3493L8.65433 23.4683L8.39475 23.0709C7.30443 21.408 6.72402 19.4626 6.72493 17.4742C6.72748 11.6757 11.6263 6.95988 17.6486 6.95988C20.5644 6.96073 23.3057 8.05608 25.3679 10.0434C27.4301 12.0306 28.5646 14.6732 28.5629 17.4835C28.5603 23.2819 23.6623 27.9995 17.6435 27.9995H17.6443ZM23.6334 20.1227C23.3049 19.9653 21.6912 19.2002 21.3899 19.0938C21.0895 18.9891 20.8708 18.9346 20.652 19.2512C20.4342 19.5678 19.8044 20.2802 19.6137 20.4904C19.4214 20.7015 19.2299 20.727 18.9014 20.5695C18.5728 20.4112 17.515 20.0776 16.2622 19.0002C15.286 18.1627 14.6272 17.1278 14.4357 16.8103C14.2442 16.4946 14.4153 16.3235 14.5796 16.166C14.7268 16.0256 14.9081 15.7975 15.0715 15.6128C15.2349 15.4282 15.2894 15.2962 15.4 15.0852C15.509 14.875 15.4545 14.6894 15.3719 14.532C15.2894 14.3728 14.634 12.817 14.3591 12.1847C14.0936 11.5685 13.823 11.6511 13.6213 11.6408C13.4298 11.6323 13.2119 11.6298 12.9914 11.6298C12.7744 11.6298 12.4178 11.7089 12.1165 12.0255C11.8161 12.3421 10.9676 13.1064 10.9676 14.6622C10.9676 16.2188 12.1438 17.7218 12.308 17.9329C12.4723 18.1431 14.623 21.3372 17.9158 22.7075C18.6988 23.0317 19.3099 23.2266 19.7873 23.373C20.5737 23.6139 21.2895 23.579 21.8546 23.4981C22.4844 23.4071 23.7968 22.7339 24.0691 21.996C24.3432 21.2581 24.3432 20.6249 24.2615 20.4929C24.1815 20.361 23.9619 20.2819 23.6334 20.1227Z" fill="black"/>
</svg>
