<svg width="36" height="36" viewBox="0 0 36 36" fill="none" xmlns="http://www.w3.org/2000/svg">
<path fill-rule="evenodd" clip-rule="evenodd" d="M29.0101 7.93666C30.2708 8.27534 31.268 9.27259 31.6067 10.5332C32.2276 12.8288 32.2465 17.5892 32.2465 17.5892C32.2465 17.5892 32.2465 22.3684 31.6255 24.6451C31.2869 25.9058 30.2896 26.903 29.029 27.2417C26.7522 27.8626 17.5889 27.8626 17.5889 27.8626C17.5889 27.8626 8.42562 27.8626 6.1489 27.2417C4.88824 26.903 3.89101 25.9058 3.55232 24.6451C2.9314 22.3496 2.9314 17.5892 2.9314 17.5892C2.9314 17.5892 2.9314 12.8288 3.5335 10.5521C3.87219 9.2914 4.86943 8.29416 6.13009 7.95548C8.4068 7.33455 17.5701 7.31573 17.5701 7.31573C17.5701 7.31573 26.7334 7.31573 29.0101 7.93666ZM22.2553 17.5892L14.6537 21.9921V13.1863L22.2553 17.5892Z" fill="black"/>
</svg>
